<svg xmlns="http://www.w3.org/2000/svg" viewBox="0 0 891.56 208.82" fill="#fff"><g id="Camada_2" data-name="Camada 2"><g id="Camada_2-2" data-name="Camada 2"><circle cx="266.52" cy="87.35" r="86.42" transform="translate(16.3 214.04) rotate(-45)"/><path d="M360.2,86.42a86.44,86.44,0,0,0,128.06,75.75V10.68A86.44,86.44,0,0,0,360.2,86.42Z"/><path d="M762,.92a86.43,86.43,0,0,0-86.42,86.43V208.82H699.2a21.2,21.2,0,0,0,21.2-21.2V163.09A86.43,86.43,0,1,0,762,.92Z"/><path d="M623.59,11.51v.1a86.42,86.42,0,1,0,0,151.48v.09a10.59,10.59,0,0,0,10.59,10.59h34.19V.92H634.18A10.59,10.59,0,0,0,623.59,11.51Z"/><path d="M154.85.92H135.53a13.59,13.59,0,0,0-10.91,5.49L86.42,57.93,48.22,6.41A13.57,13.57,0,0,0,37.32.92H18a18,18,0,0,0-18,18v156.7H172.84V18.92A18,18,0,0,0,154.85.92Z"/><path d="M849.38,5.64V.92h19V5.64h-6.48V22.26h-6V5.64Z"/><path d="M875.54,22.26h-5.87V.92h7.51l3.36,8.61L884.16.92h7.4V22.26h-6V9.66l-3.39,8.16h-3.37l-3.25-8.13Z"/></g></g></svg>